# xmcd
#
# Track frame offsets:
#	150
#	13725
#	28030
#	42611
#	57919
#	75062
#	93960
#	120667
#	136115
#	153677
#
# Disc length: 2258 seconds
#
# Revision: 1
# Processed by: cddbd v1.5.2PL0 Copyright (c) Steve Scherf et al.
# Submitted via: audiograbber 1.83.01
#
DISCID=7508d00a
DTITLE=Bye: - Sanatorium
DYEAR=2005
DGENRE=Norsk
TTITLE0=Noen av oss
TTITLE1=Så godt som
TTITLE2=Evig høst
TTITLE3=Søt sang
TTITLE4=Mørkt møte
TTITLE5=Hvis du hadde visst
TTITLE6=Nå som alt har et navn
TTITLE7=Fint lite
TTITLE8=I Herrens havn
TTITLE9=Uten deg - der er du!
EXTD=
EXTT0=
EXTT1=
EXTT2=
EXTT3=
EXTT4=
EXTT5=
EXTT6=
EXTT7=
EXTT8=
EXTT9=
PLAYORDER=
